<svg xmlns="http://www.w3.org/2000/svg" version="1.1" xmlns:xlink="http://www.w3.org/1999/xlink" xmlns:svgjs="http://svgjs.com/svgjs" width="1440" height="560" preserveAspectRatio="none" viewBox="0 0 1440 560"><g mask="url(&quot;#SvgjsMask1038&quot;)" fill="none"><rect width="1440" height="560" x="0" y="0" fill="rgba(235, 240, 245, 1)"></rect><path d="M1465.025,243.135C1498.154,244.331,1531.627,231.004,1548.401,202.41C1565.35,173.518,1559.62,138.316,1543.852,108.762C1526.921,77.028,1500.953,47.831,1465.025,46.139C1426.603,44.329,1389.076,66.115,1372.194,100.677C1356.831,132.13,1372.35,167.417,1391.461,196.745C1408.424,222.777,1433.974,242.014,1465.025,243.135" fill="rgba(28, 83, 142, 0.4)" class="triangle-float3"></path><path d="M13.147,373.072C41.997,372.412,69.999,360.578,84.818,335.815C100.025,310.404,99.328,278.868,85.047,252.925C70.219,225.989,43.883,206.469,13.147,205.622C-19.032,204.735,-49.792,220.927,-65.958,248.765C-82.191,276.719,-81.796,311.961,-64.441,339.232C-48.205,364.745,-17.086,373.764,13.147,373.072" fill="rgba(28, 83, 142, 0.4)" class="triangle-float1"></path><path d="M1167.055,245.86C1184.953,246.109,1201.962,238.14,1211.7,223.121C1222.408,206.606,1226.218,185.881,1217.336,168.316C1207.597,149.055,1188.636,135.099,1167.055,134.829C1145.052,134.554,1124.211,147.26,1114.551,167.031C1105.804,184.934,1113.466,205.323,1124.512,221.907C1134.182,236.425,1149.614,245.617,1167.055,245.86" fill="rgba(28, 83, 142, 0.4)" class="triangle-float3"></path><path d="M910.111,702.542C961.487,702.558,1000.825,663.413,1027.53,619.523C1055.641,573.322,1077.096,517.738,1051.557,470.067C1024.952,420.407,966.438,401.471,910.111,400.354C851.376,399.189,786.326,412.464,758.599,464.256C731.801,514.312,762.351,571.538,792.816,619.451C820.371,662.787,858.757,702.526,910.111,702.542" fill="rgba(28, 83, 142, 0.4)" class="triangle-float3"></path><path d="M1297.841,586.797C1354.132,590.204,1419.712,585.776,1447.537,536.724C1475.169,488.011,1441.614,431.952,1412.979,383.822C1385.276,337.257,1352.023,284.742,1297.841,285.109C1244.014,285.473,1210.039,337.519,1185.369,385.361C1163.224,428.308,1152.997,478.133,1176.553,520.322C1200.642,563.465,1248.518,583.812,1297.841,586.797" fill="rgba(28, 83, 142, 0.4)" class="triangle-float1"></path></g><defs><mask id="SvgjsMask1038"><rect width="1440" height="560" fill="#ffffff"></rect></mask><style>
            @keyframes float1 {
                0%{transform: translate(0, 0)}
                50%{transform: translate(-20px, 0)}
                100%{transform: translate(0, 0)}
            }

            .triangle-float1 {
                animation: float1 5s infinite;
            }

            @keyframes float2 {
                0%{transform: translate(0, 0)}
                50%{transform: translate(-5px, -5px)}
                100%{transform: translate(0, 0)}
            }

            .triangle-float2 {
                animation: float2 4s infinite;
            }

            @keyframes float3 {
                0%{transform: translate(0, 0)}
                50%{transform: translate(0, -10px)}
                100%{transform: translate(0, 0)}
            }

            .triangle-float3 {
                animation: float3 3s infinite;
            }
        </style></defs></svg>